<svg width="247" height="138" viewBox="0 0 247 138" fill="none" xmlns="http://www.w3.org/2000/svg">
<g clip-path="url(#clip0_646_49403)">
<rect width="247" height="138" fill="#F2F4F7"/>
<path opacity="0.5" d="M249.146 43.735L169.822 14.2245L91.4997 44.7971L51.571 118.716L65.8953 198.618L131.32 252.285L214.248 252.158L277.163 197.095L291.83 114.306L249.146 43.735Z" fill="white"/>
<path opacity="0.5" d="M53.2924 -37.2107L3.98051 -55.5562L-44.7093 -36.5505L-69.5313 9.40175L-60.6264 59.0732L-19.955 92.4355L31.598 92.3568L70.7098 58.1263L79.8273 6.65994L53.2924 -37.2107Z" fill="white"/>
<g filter="url(#filter0_d_646_49403)">
<rect x="47" y="25" width="153" height="88" fill="white"/>
<rect x="49" y="27" width="149" height="84" stroke="black" stroke-width="4"/>
</g>
<rect x="59" y="37" width="40" height="36" fill="#F2F4F7"/>
<rect x="59" y="78" width="40" height="24" fill="#F2F4F7"/>
<rect x="104" y="78" width="40" height="24" fill="#F2F4F7"/>
<rect x="149" y="78" width="40" height="24" fill="#F2F4F7"/>
<rect x="104" y="37" width="85" height="36" fill="#F2F4F7"/>
<path d="M66 84H92" stroke="black"/>
<path d="M111 84H132" stroke="black"/>
<path d="M156 84H174" stroke="black"/>
<path d="M66 90H86" stroke="black"/>
<path d="M111 90H123" stroke="black"/>
<path d="M129 90H135" stroke="black"/>
<path d="M156 90H178" stroke="black"/>
<path d="M66 96H92" stroke="black"/>
<path d="M111 96H137" stroke="black"/>
<path d="M156 96H163" stroke="black"/>
<path d="M166 96H182" stroke="black"/>
<rect x="117" y="63" width="6" height="6" fill="black"/>
<rect x="128" y="54" width="6" height="15" fill="black"/>
<rect x="139" y="46" width="6" height="23" fill="black"/>
<rect x="172" y="47" width="6" height="22" fill="#F15D61"/>
<rect x="150" y="51" width="6" height="18" fill="black"/>
<rect x="161" y="59" width="6" height="10" fill="black"/>
<path d="M112 69H182.5" stroke="black" stroke-width="0.25"/>
<circle cx="79" cy="55" r="8" fill="#F2F4F7" stroke="black" stroke-width="4"/>
<mask id="mask0_646_49403" style="mask-type:alpha" maskUnits="userSpaceOnUse" x="69" y="45" width="20" height="20">
<path fill-rule="evenodd" clip-rule="evenodd" d="M79 61C82.3137 61 85 58.3137 85 55C85 51.6863 82.3137 49 79 49C75.6863 49 73 51.6863 73 55C73 58.3137 75.6863 61 79 61ZM79 65C84.5228 65 89 60.5228 89 55C89 49.4772 84.5228 45 79 45C73.4772 45 69 49.4772 69 55C69 60.5228 73.4772 65 79 65Z" fill="black"/>
</mask>
<g mask="url(#mask0_646_49403)">
<rect x="46" y="32" width="33" height="23" fill="#F15D61"/>
</g>
<mask id="mask1_646_49403" style="mask-type:alpha" maskUnits="userSpaceOnUse" x="69" y="45" width="20" height="20">
<path fill-rule="evenodd" clip-rule="evenodd" d="M79 49C75.6863 49 73 51.6863 73 55C73 58.3137 75.6863 61 79 61C82.3137 61 85 58.3137 85 55C85 51.6863 82.3137 49 79 49ZM79 45C73.4772 45 69 49.4772 69 55C69 60.5228 73.4772 65 79 65C84.5228 65 89 60.5228 89 55C89 49.4772 84.5228 45 79 45Z" fill="black"/>
</mask>
<g mask="url(#mask1_646_49403)">
<rect x="112" y="78" width="33" height="23" transform="rotate(-180 112 78)" fill="#F15D61"/>
</g>
<path d="M38 111H43V116H38V111Z" fill="#2F2C2C"/>
<path d="M204 21H209V26H204V21Z" fill="#2F2C2C"/>
</g>
<defs>
<filter id="filter0_d_646_49403" x="47" y="25" width="155" height="90" filterUnits="userSpaceOnUse" color-interpolation-filters="sRGB">
<feFlood flood-opacity="0" result="BackgroundImageFix"/>
<feColorMatrix in="SourceAlpha" type="matrix" values="0 0 0 0 0 0 0 0 0 0 0 0 0 0 0 0 0 0 127 0" result="hardAlpha"/>
<feOffset dx="2" dy="2"/>
<feComposite in2="hardAlpha" operator="out"/>
<feColorMatrix type="matrix" values="0 0 0 0 0.85 0 0 0 0 0.85 0 0 0 0 0.85 0 0 0 1 0"/>
<feBlend mode="normal" in2="BackgroundImageFix" result="effect1_dropShadow_646_49403"/>
<feBlend mode="normal" in="SourceGraphic" in2="effect1_dropShadow_646_49403" result="shape"/>
</filter>
<clipPath id="clip0_646_49403">
<rect width="247" height="138" fill="white"/>
</clipPath>
</defs>
</svg>
