<svg width="247" height="138" viewBox="0 0 247 138" fill="none" xmlns="http://www.w3.org/2000/svg">
<g clip-path="url(#clip0_654_49661)">
<rect width="247" height="138" fill="#F2F4F7"/>
<path opacity="0.5" d="M249.146 43.735L169.822 14.2245L91.4997 44.7971L51.571 118.716L65.8953 198.618L131.32 252.285L214.248 252.158L277.163 197.095L291.83 114.306L249.146 43.735Z" fill="white"/>
<path opacity="0.5" d="M53.2924 -37.2107L3.98051 -55.5562L-44.7093 -36.5505L-69.5313 9.40175L-60.6264 59.0732L-19.955 92.4355L31.598 92.3568L70.7098 58.1263L79.8273 6.65994L53.2924 -37.2107Z" fill="white"/>
<path d="M95.4198 108.311L124.878 118.088L154.336 108.311L162.252 97.1822L159.357 93.4981L151.526 104.508L124.878 113.353L98.2302 104.508L81.7344 81.3163V51.9038H77.2402V82.7515L95.4198 108.311Z" fill="black"/>
<path d="M122.295 19.5461L151.754 29.3232L169.933 54.8826V77.6408H178L167.214 91.1232L156.428 77.6408H165.439V56.3178L148.943 33.1256L122.295 24.2813L95.6477 33.1256L87.3306 44.819L84.4072 41.1754L92.8373 29.3232L122.295 19.5461Z" fill="black"/>
<path d="M79.9138 47.4097L90.6997 60.892H69.1279L79.9138 47.4097Z" fill="black"/>
<path fill-rule="evenodd" clip-rule="evenodd" d="M108.841 49.5814L110.686 51.1705L118.887 52.9994H129.78L138.071 51.0806L139.826 49.5814L144.698 50.5409L145.455 60.8549L148.087 63.6733L149.025 69.4599L144.971 73.4176L148.45 79.4141L145.485 78.7245L147.059 82.6223L133.653 86.9697L124.303 87.6593L114.953 86.9697L101.578 82.6223L103.152 78.7245L100.186 79.4141L103.666 73.4176L99.6113 69.4599L100.549 63.6733L103.182 60.8549L103.938 50.5409C105.724 50.2111 106.783 50.0012 108.841 49.5814Z" fill="#300500"/>
<path fill-rule="evenodd" clip-rule="evenodd" d="M108.718 49L110.628 50.66L118.753 52.489H129.622L137.84 50.5695L139.659 49.001L144.932 50.0491L145.701 60.6303L148.334 63.476L149.316 69.5918L145.301 73.5474L149.033 80.038L145.939 79.3117L147.42 83.016L133.608 87.5371L124.158 88.2406L114.708 87.5371L100.926 83.0158L102.408 79.3117L99.3137 80.038L103.046 73.5474L99.0303 69.5918L100.013 63.476L102.646 60.6303L103.415 50.0462L103.651 50.0023C105.441 49.6685 106.502 49.4562 108.568 49.0309L108.718 49ZM139.835 49.6688L138.129 51.1392L129.694 53.1096H118.684L110.339 51.2311L108.542 49.6698C106.662 50.0566 105.614 50.2663 104 50.5685L103.249 60.8923L100.596 63.7598L99.6938 69.3743L103.822 73.4415L100.565 79.1067L103.427 78.435L101.748 82.6322L114.829 86.9238L124.158 87.6182L133.487 86.9238L146.598 82.632L144.92 78.435L147.782 79.1067L144.524 73.4415L148.653 69.3743L147.751 63.7598L145.097 60.8923L144.347 50.5657L139.835 49.6688Z" fill="#300500"/>
<path fill-rule="evenodd" clip-rule="evenodd" d="M134.339 56.1718C146.232 42.59 143.634 74.271 143.384 72.7153L142.914 72.835L142.633 72.476C139.44 68.3775 131.146 60.4797 134.339 56.1718Z" fill="#300500"/>
<path fill-rule="evenodd" clip-rule="evenodd" d="M114.287 56.1718C102.409 42.59 105.003 74.271 105.253 72.7153L105.722 72.835L106.003 72.476C109.223 68.3775 117.507 60.4797 114.287 56.1718Z" fill="#300500"/>
<path fill-rule="evenodd" clip-rule="evenodd" d="M124.334 54.2319H129.94L134.602 57.0457L137.679 63.2784L139.233 61.6143L138.868 64.4281L141.488 65.0937L139.325 66.1224L146.119 77.8314L143.621 77.2565L145.601 82.158L133.505 86.0912L124.334 86.7871L115.163 86.0912L103.067 82.158L105.047 77.2565L102.519 77.8314L109.344 66.1224L107.18 65.0937L109.77 64.4281L109.404 61.6143L110.989 63.2784L114.066 57.0457L118.697 54.2319H124.334Z" fill="#CC3805"/>
<path fill-rule="evenodd" clip-rule="evenodd" d="M129.947 76.5317L133.208 74.8945L134.542 69.0563L137.981 78.694L133.534 86.0767L124.61 86.7872V74.7092L129.947 76.5317Z" fill="#780500"/>
<path fill-rule="evenodd" clip-rule="evenodd" d="M119.041 76.5317L115.638 74.8945L114.215 69.0563L110.657 78.694L115.298 86.0767L124.609 86.7872V74.7092L119.041 76.5317Z" fill="#780500"/>
<path fill-rule="evenodd" clip-rule="evenodd" d="M137.198 61.7717L137.882 63.1668L139.398 61.4988L139.041 64.3192L141.599 64.9864L139.487 66.0176L146.119 77.7543L143.681 77.1781L145.614 82.0911L140.201 83.8805L143.8 80.8477L137.108 61.8021L137.198 61.7717Z" fill="#ED6338"/>
<path fill-rule="evenodd" clip-rule="evenodd" d="M124.335 73.9978L126.223 74.0574L129.817 76.8896H132.405L134.202 79.5727L128.294 85.9228L124.335 86.7873L120.345 85.9228L114.437 79.5727L116.233 76.8896H118.853L122.446 74.0574L124.335 73.9978Z" fill="#FFE8D6"/>
<path fill-rule="evenodd" clip-rule="evenodd" d="M124.146 85.0562H127.312L129.331 80.6831L132.165 81.3816L128.065 85.9065L124.146 86.7872L120.197 85.9065L116.76 82.1104L119.292 81.5031L120.98 85.0562H124.146Z" fill="#F0BD94"/>
<path fill-rule="evenodd" clip-rule="evenodd" d="M126.393 69.6377L125.481 64.3193L129.451 63.2429L129.842 68.2764L126.393 69.6377Z" fill="#F0BD94"/>
<path fill-rule="evenodd" clip-rule="evenodd" d="M132.167 65.9633L130.132 64.4056L130.401 68.1844L131.927 67.8959L132.167 65.9633Z" fill="#F0BD94"/>
<path fill-rule="evenodd" clip-rule="evenodd" d="M134.041 60.0317L133.62 56.5758L140.115 51.0345L143.483 51.69L144.205 61.4319L146.58 63.994L144.445 69.2671L147.001 66.4965L147.572 69.0884L144.054 72.5442L140.386 68.135L143.363 65.4836L141.468 62.0873L141.137 56.0991L136.777 61.9085L134.041 60.0317Z" fill="#FFE8D6"/>
<path fill-rule="evenodd" clip-rule="evenodd" d="M141.34 55.6854L136.954 61.641L134.202 59.7169L136.833 60.175L141.34 55.6854ZM144.273 72.5443L140.614 68.0242L143.608 65.3365L141.672 61.8243L141.34 55.6854L142.459 61.8243L144.666 64.3287V69.2153L144.273 72.5443Z" fill="#F0BD94"/>
<path fill-rule="evenodd" clip-rule="evenodd" d="M133.455 56.2668L129.843 53.964L138.272 51.9067L133.455 56.2668Z" fill="#780500"/>
<path fill-rule="evenodd" clip-rule="evenodd" d="M124.259 77.554L126.716 77.1952L127.05 77.8529L124.684 79.8561L124.654 81.1417L125.018 81.4705L128.657 80.9623L129.476 80.3942L129.84 80.7231L129.264 81.9489L128.597 81.6499L124.259 82.1283H120.62L119.983 82.4273L119.376 81.2015L119.77 80.8726L120.589 81.4705H123.471L123.835 81.1417L123.804 79.8561L121.469 77.8529L121.772 77.1952L124.259 77.554Z" fill="#300500"/>
<path fill-rule="evenodd" clip-rule="evenodd" d="M124.335 77.7765L126.935 77.3632L125.298 73.9978H124.335H123.372L121.703 77.3632L124.335 77.7765Z" fill="#F0BD94"/>
<path fill-rule="evenodd" clip-rule="evenodd" d="M129.809 75.4512L131.886 74.3295L132.748 71.9952L129.841 70.5098L127.605 71.7527L126.935 74.5114L129.809 75.4512Z" fill="#300500"/>
<path fill-rule="evenodd" clip-rule="evenodd" d="M137.584 79.4592L133.62 85.9152L140.077 83.7428L141.759 78.9085L139.867 76.7055L141.639 76.6749L134.641 69.0563L137.584 79.4592Z" fill="#FFE8D6"/>
<path fill-rule="evenodd" clip-rule="evenodd" d="M124.318 73.9344L126.062 73.9978L125.387 70.5098H124.318H123.221L122.574 73.9978L124.318 73.9344Z" fill="#ED6338"/>
<path fill-rule="evenodd" clip-rule="evenodd" d="M129.76 71.0909L127.903 72.1047L127.807 73.948L129.632 74.8697L131.457 73.948L131.585 72.074L129.76 71.0909Z" fill="#780500"/>
<path fill-rule="evenodd" clip-rule="evenodd" d="M129.581 71.3816L128.448 72.0683L128.389 73.3763L129.522 73.9976L130.625 73.3763L130.714 72.0683L129.581 71.3816Z" fill="#300500"/>
<path fill-rule="evenodd" clip-rule="evenodd" d="M130.503 71.0909L129.843 71.4385V72.1968L130.536 72.5443L131.23 72.1968L131.296 71.4701L130.503 71.0909Z" fill="#FFE8D6"/>
<path fill-rule="evenodd" clip-rule="evenodd" d="M124.61 54.2319V59.1733L129.261 54.2319H124.61Z" fill="#ED6338"/>
<path fill-rule="evenodd" clip-rule="evenodd" d="M133.62 85.9152L135.092 83.5802L138.846 81.9038L140.227 79.1496L139.867 76.9044L141.759 79.0598L140.077 83.7898L133.62 85.9152Z" fill="#F0BD94"/>
<path fill-rule="evenodd" clip-rule="evenodd" d="M129.26 63.2429L125.481 64.3471L126.225 69.0563L127.897 68.147L129.26 63.2429Z" fill="#FFE8D6"/>
<path fill-rule="evenodd" clip-rule="evenodd" d="M132.167 66.0658L130.132 64.4056L131.059 67.603L132.167 66.0658Z" fill="#FFE8D6"/>
<path fill-rule="evenodd" clip-rule="evenodd" d="M111.44 61.7717L110.759 63.1668L109.217 61.4988L109.573 64.3192L107.054 64.9864L109.158 66.0176L102.519 77.7543L104.979 77.1781L103.052 82.0911L108.417 83.8805L104.86 80.8477L111.529 61.8021L111.44 61.7717Z" fill="#ED6338"/>
<path fill-rule="evenodd" clip-rule="evenodd" d="M122.245 68.7656L123.156 63.4419L119.186 62.3708L118.796 67.4111L122.245 68.7656Z" fill="#F0BD94"/>
<path fill-rule="evenodd" clip-rule="evenodd" d="M116.47 65.353L118.214 63.8242L117.979 67.6029L116.652 67.2856L116.47 65.353Z" fill="#F0BD94"/>
<path fill-rule="evenodd" clip-rule="evenodd" d="M115.06 56.2668L118.797 53.964L110.077 51.9067L115.06 56.2668Z" fill="#780500"/>
<path fill-rule="evenodd" clip-rule="evenodd" d="M118.843 75.4512L116.755 74.3295L115.888 71.9952L118.778 70.5098L121.027 71.7527L121.701 74.5114L118.843 75.4512Z" fill="#300500"/>
<path fill-rule="evenodd" clip-rule="evenodd" d="M111.069 79.4592L115.019 85.9152L108.556 83.7428L106.88 78.9085L108.765 76.7055L107 76.6749L113.971 69.0563L111.069 79.4592Z" fill="#FFE8D6"/>
<path fill-rule="evenodd" clip-rule="evenodd" d="M118.725 71.0909L120.726 72.1047L120.829 73.948L118.898 74.8697L116.932 73.948L116.76 72.074L118.725 71.0909Z" fill="#780500"/>
<path fill-rule="evenodd" clip-rule="evenodd" d="M119.041 71.3816L120.189 72.0683L120.249 73.3763L119.132 73.9976L118.014 73.3763L117.924 72.0683L119.041 71.3816Z" fill="#300500"/>
<path fill-rule="evenodd" clip-rule="evenodd" d="M118.136 71.0909L118.763 71.4385L118.796 72.1968L118.102 72.5443L117.376 72.1968L117.343 71.4701L118.136 71.0909Z" fill="#FFE8D6"/>
<path fill-rule="evenodd" clip-rule="evenodd" d="M124.608 54.2319V59.1733L119.376 54.2319H124.608Z" fill="#ED6338"/>
<path fill-rule="evenodd" clip-rule="evenodd" d="M115.019 85.9152L113.552 83.5802L109.782 81.9038L108.406 79.1496L108.765 76.9044L106.88 79.0598L108.556 83.7898L115.019 85.9152Z" fill="#F0BD94"/>
<path fill-rule="evenodd" clip-rule="evenodd" d="M119.376 62.3708L123.155 63.4689L122.38 68.1843L120.708 67.28L119.376 62.3708Z" fill="#FFE8D6"/>
<path fill-rule="evenodd" clip-rule="evenodd" d="M116.47 65.3055L118.214 63.8242L117.433 66.7309L116.47 65.3055Z" fill="#FFE8D6"/>
<path fill-rule="evenodd" clip-rule="evenodd" d="M114.626 60.0317L115.017 56.5758L108.522 51.0345L105.184 51.69L104.462 61.4319L102.087 63.994L104.192 69.2671L101.666 66.4965L101.064 69.0884L104.613 72.5442L108.251 68.135L105.274 65.4836L107.199 62.0873L107.529 56.0991L111.889 61.9085L114.626 60.0317Z" fill="#FFE8D6"/>
<path fill-rule="evenodd" clip-rule="evenodd" d="M107.299 55.6854L111.685 61.641L114.437 59.7169L111.806 60.175L107.299 55.6854ZM104.366 72.5443L108.025 68.0242L105.031 65.3365L106.967 61.8243L107.299 55.6854L106.18 61.8243L103.973 64.3287V69.2153L104.366 72.5443Z" fill="#F0BD94"/>
<path fill-rule="evenodd" clip-rule="evenodd" d="M127.744 71.5202L127.078 74.2884L126.062 73.68L126.76 70.5164L129.745 69.0563L133.619 70.6685L132.857 71.7636L129.967 70.273L127.744 71.5202Z" fill="#FFE8D6"/>
<path fill-rule="evenodd" clip-rule="evenodd" d="M120.867 71.5202L121.531 74.2884L122.574 73.68L121.878 70.5164L118.906 69.0563L115.017 70.6685L115.807 71.7636L118.653 70.273L120.867 71.5202Z" fill="#FFE8D6"/>
</g>
<defs>
<clipPath id="clip0_654_49661">
<rect width="247" height="138" fill="white"/>
</clipPath>
</defs>
</svg>
