<svg width="247" height="138" viewBox="0 0 247 138" fill="none" xmlns="http://www.w3.org/2000/svg">
<g clip-path="url(#clip0_654_49800)">
<rect width="247" height="138" fill="#F2F4F7"/>
<path opacity="0.5" d="M249.146 43.735L169.822 14.2245L91.4997 44.7971L51.571 118.716L65.8953 198.618L131.32 252.285L214.248 252.158L277.163 197.095L291.83 114.306L249.146 43.735Z" fill="white"/>
<path opacity="0.5" d="M53.2924 -37.2107L3.98051 -55.5562L-44.7093 -36.5505L-69.5313 9.40175L-60.6264 59.0732L-19.955 92.4355L31.598 92.3568L70.7098 58.1263L79.8273 6.65994L53.2924 -37.2107Z" fill="white"/>
<g filter="url(#filter0_d_654_49800)">
<path fill-rule="evenodd" clip-rule="evenodd" d="M76.9787 50.2971L64 46L51.0213 50.2971L43 61.5471V75.4529L51.0213 86.7029L64 91L76.9787 86.7029L85 75.4529V61.5471L76.9787 50.2971Z" fill="white"/>
<path d="M64 47.8434L75.8858 51.7787L83.25 62.1071V74.8929L75.8858 85.2213L64 89.1566L52.1142 85.2213L44.75 74.8929V62.1071L52.1142 51.7787L64 47.8434Z" stroke="black" stroke-width="3.5"/>
</g>
<g filter="url(#filter1_d_654_49800)">
<path fill-rule="evenodd" clip-rule="evenodd" d="M136.979 50.2971L124 46L111.021 50.2971L103 61.5471V75.4529L111.021 86.7029L124 91L136.979 86.7029L145 75.4529V61.5471L136.979 50.2971Z" fill="white"/>
<path d="M124 47.8434L135.886 51.7787L143.25 62.1071V74.8929L135.886 85.2213L124 89.1566L112.114 85.2213L104.75 74.8929V62.1071L112.114 51.7787L124 47.8434Z" stroke="black" stroke-width="3.5"/>
</g>
<g filter="url(#filter2_d_654_49800)">
<path fill-rule="evenodd" clip-rule="evenodd" d="M196.979 50.2971L184 46L171.021 50.2971L163 61.5471V75.4529L171.021 86.7029L184 91L196.979 86.7029L205 75.4529V61.5471L196.979 50.2971Z" fill="white"/>
<path d="M184 47.8434L195.886 51.7787L203.25 62.1071V74.8929L195.886 85.2213L184 89.1566L172.114 85.2213L164.75 74.8929V62.1071L172.114 51.7787L184 47.8434Z" stroke="black" stroke-width="3.5"/>
</g>
<path d="M60.1843 72.677L55.1582 67.6432L53 69.8047L60.1843 77L75 62.1615L72.8418 60L60.1843 72.677Z" fill="#E2401B"/>
<path d="M120.184 72.677L115.158 67.6432L113 69.8047L120.184 77L135 62.1615L132.842 60L120.184 72.677Z" fill="#E2401B"/>
<path d="M180.184 72.677L175.158 67.6432L173 69.8047L180.184 77L195 62.1615L192.842 60L180.184 72.677Z" fill="#E2401B"/>
</g>
<defs>
<filter id="filter0_d_654_49800" x="43" y="46" width="44" height="47" filterUnits="userSpaceOnUse" color-interpolation-filters="sRGB">
<feFlood flood-opacity="0" result="BackgroundImageFix"/>
<feColorMatrix in="SourceAlpha" type="matrix" values="0 0 0 0 0 0 0 0 0 0 0 0 0 0 0 0 0 0 127 0" result="hardAlpha"/>
<feOffset dx="2" dy="2"/>
<feComposite in2="hardAlpha" operator="out"/>
<feColorMatrix type="matrix" values="0 0 0 0 0.85 0 0 0 0 0.85 0 0 0 0 0.85 0 0 0 1 0"/>
<feBlend mode="normal" in2="BackgroundImageFix" result="effect1_dropShadow_654_49800"/>
<feBlend mode="normal" in="SourceGraphic" in2="effect1_dropShadow_654_49800" result="shape"/>
</filter>
<filter id="filter1_d_654_49800" x="103" y="46" width="44" height="47" filterUnits="userSpaceOnUse" color-interpolation-filters="sRGB">
<feFlood flood-opacity="0" result="BackgroundImageFix"/>
<feColorMatrix in="SourceAlpha" type="matrix" values="0 0 0 0 0 0 0 0 0 0 0 0 0 0 0 0 0 0 127 0" result="hardAlpha"/>
<feOffset dx="2" dy="2"/>
<feComposite in2="hardAlpha" operator="out"/>
<feColorMatrix type="matrix" values="0 0 0 0 0.85 0 0 0 0 0.85 0 0 0 0 0.85 0 0 0 1 0"/>
<feBlend mode="normal" in2="BackgroundImageFix" result="effect1_dropShadow_654_49800"/>
<feBlend mode="normal" in="SourceGraphic" in2="effect1_dropShadow_654_49800" result="shape"/>
</filter>
<filter id="filter2_d_654_49800" x="163" y="46" width="44" height="47" filterUnits="userSpaceOnUse" color-interpolation-filters="sRGB">
<feFlood flood-opacity="0" result="BackgroundImageFix"/>
<feColorMatrix in="SourceAlpha" type="matrix" values="0 0 0 0 0 0 0 0 0 0 0 0 0 0 0 0 0 0 127 0" result="hardAlpha"/>
<feOffset dx="2" dy="2"/>
<feComposite in2="hardAlpha" operator="out"/>
<feColorMatrix type="matrix" values="0 0 0 0 0.85 0 0 0 0 0.85 0 0 0 0 0.85 0 0 0 1 0"/>
<feBlend mode="normal" in2="BackgroundImageFix" result="effect1_dropShadow_654_49800"/>
<feBlend mode="normal" in="SourceGraphic" in2="effect1_dropShadow_654_49800" result="shape"/>
</filter>
<clipPath id="clip0_654_49800">
<rect width="247" height="138" fill="white"/>
</clipPath>
</defs>
</svg>
