<svg width="247" height="138" viewBox="0 0 247 138" fill="none" xmlns="http://www.w3.org/2000/svg">
<g clip-path="url(#clip0_647_49508)">
<rect width="247" height="138" fill="#F2F4F7"/>
<path opacity="0.5" d="M249.146 43.735L169.822 14.2245L91.4997 44.7971L51.571 118.716L65.8953 198.618L131.32 252.285L214.248 252.158L277.163 197.095L291.83 114.306L249.146 43.735Z" fill="white"/>
<path opacity="0.5" d="M53.2924 -37.2107L3.98051 -55.5562L-44.7093 -36.5505L-69.5313 9.40175L-60.6264 59.0732L-19.955 92.4355L31.598 92.3568L70.7098 58.1263L79.8273 6.65994L53.2924 -37.2107Z" fill="white"/>
<path d="M121.114 29.8768H127.595V40.6785H121.114V29.8768Z" fill="black"/>
<path d="M148.291 37.9909L153.256 42.1568L147.683 48.7984L142.718 44.6324L148.291 37.9909Z" fill="black"/>
<path d="M100.467 38.0164L95.5021 42.1823L101.054 48.7985L106.018 44.6326L100.467 38.0164Z" fill="black"/>
<path d="M132.995 26.6364L132.995 33.1174L115.712 33.1174L115.712 26.6364L132.995 26.6364Z" fill="black"/>
<path d="M124.355 36.3579L146.385 43.5782L160 62.4811V85.8465L146.385 104.749L124.355 111.97L102.324 104.749L88.709 85.8465V62.4811L102.324 43.5782L124.355 36.3579Z" fill="white"/>
<path fill-rule="evenodd" clip-rule="evenodd" d="M124.355 42.446L105.917 48.4888L94.4943 64.3478V83.9799L105.917 99.8389L124.355 105.882L142.792 99.8389L154.215 83.9799V64.3478L142.792 48.4888L124.355 42.446ZM146.385 43.5782L124.355 36.3579L102.324 43.5782L88.709 62.4811V85.8465L102.324 104.749L124.355 111.97L146.385 104.749L160 85.8465V62.4811L146.385 43.5782Z" fill="black"/>
<path d="M139.892 50.9888L122.908 45.4387V76.3161L140.233 97.5065L150.388 83.4801V65.5194L139.892 50.9888Z" fill="#E2401B"/>
<path d="M143.583 52.5178L127.766 79.2539L121.384 79.4107L120.412 73.2091L143.583 52.5178Z" fill="black"/>
</g>
<defs>
<clipPath id="clip0_647_49508">
<rect width="247" height="138" fill="white"/>
</clipPath>
</defs>
</svg>
