<svg width="450" height="75" viewBox="0 0 450 75" fill="none" xmlns="http://www.w3.org/2000/svg">
<g clip-path="url(#clip0_74_34)">
<path fill-rule="evenodd" clip-rule="evenodd" d="M0 0V65.9941H26.7084V57.946H8.09348V8.048H18.3327V0H0Z" fill="#2D2828"/>
<path fill-rule="evenodd" clip-rule="evenodd" d="M22.7305 8.048H26.3505V0H22.7305V8.048Z" fill="#2D2828"/>
<path fill-rule="evenodd" clip-rule="evenodd" d="M38.0859 0V8.048H56.701V57.946H46.4615V65.9941H64.7944V0H38.0859Z" fill="#2D2828"/>
<path fill-rule="evenodd" clip-rule="evenodd" d="M38.4434 65.9941H42.0633V57.946H38.4434V65.9941Z" fill="#2D2828"/>
<path fill-rule="evenodd" clip-rule="evenodd" d="M20.4551 16.7504V26.897L34.5617 33.2646H34.5617L45.8003 28.1916L20.4551 16.7504Z" fill="#D85556"/>
<path fill-rule="evenodd" clip-rule="evenodd" d="M45.8003 28.1917V28.1917L34.5617 33.2647L20.4551 39.6324V49.7792L45.8003 38.338V28.1917Z" fill="#F05E60"/>
<path fill-rule="evenodd" clip-rule="evenodd" d="M91.2676 8.11047V58.2679H102.842V43.386H108.354L116.622 58.2679H131.504L120.48 38.9766C123.603 37.323 129.96 32.1419 130.401 24.6459C130.953 15.2758 123.236 8.11047 113.866 8.11047H91.2676ZM102.809 19.4923V30.5159H111.628C113.282 30.3322 116.589 28.8624 116.589 24.4529C116.589 20.0435 112.547 19.3086 110.526 19.4923H102.809Z" fill="#2F2C2C"/>
<path fill-rule="evenodd" clip-rule="evenodd" d="M207.9 40.3917C207.9 36.1872 204.776 33.1233 200.462 33.1233C196.149 33.1233 193.249 36.0447 193.249 40.3917C193.249 44.7388 196.074 47.6606 200.389 47.6606C204.776 47.6606 207.9 44.7388 207.9 40.3917V40.3917ZM220.839 5.61658V58.4943H208.048V53.5766C205.742 57.1401 202.172 59.2784 197.116 59.2784C186.778 59.2784 179.787 51.7244 179.787 40.3929C179.787 29.1335 187.15 21.5081 197.338 21.5081C201.949 21.5081 205.37 23.3613 207.601 26.4967V5.61658H220.839Z" fill="#2F2C2C"/>
<path fill-rule="evenodd" clip-rule="evenodd" d="M390.298 40.3917C390.298 36.1872 387.175 33.1233 382.861 33.1233C378.548 33.1233 375.648 36.0447 375.648 40.3917C375.648 44.7388 378.473 47.6606 382.787 47.6606C387.175 47.6606 390.298 44.7388 390.298 40.3917V40.3917ZM403.242 5.61658V58.4943H390.45V53.5766C388.144 57.1401 384.575 59.2784 379.518 59.2784C369.18 59.2784 362.189 51.7244 362.189 40.3929C362.189 29.1335 369.552 21.5081 379.741 21.5081C384.352 21.5081 387.773 23.3613 390.004 26.4967V5.61658H403.242Z" fill="#2F2C2C"/>
<path fill-rule="evenodd" clip-rule="evenodd" d="M240.585 40.2249C240.585 44.4294 243.708 47.4933 248.023 47.4933C252.336 47.4933 255.236 44.5719 255.236 40.2249C255.236 35.8778 252.41 32.956 248.096 32.956C243.708 32.956 240.585 35.8778 240.585 40.2249V40.2249ZM227.645 75L227.645 22.1223L240.436 22.1223L240.436 27.04C242.743 23.4765 246.312 21.3382 251.369 21.3382C261.706 21.3382 268.697 28.8921 268.697 40.2236C268.697 51.483 261.334 59.1085 251.146 59.1085C246.535 59.1085 243.114 57.2552 240.883 54.1199L240.883 75L227.645 75Z" fill="#2F2C2C"/>
<path fill-rule="evenodd" clip-rule="evenodd" d="M313.96 23.7055V59.4966H301.169V54.5789C298.863 58.1424 295.293 60.2807 290.237 60.2807C279.899 60.2807 272.908 52.7268 272.908 41.3953C272.908 30.1359 280.271 22.5104 290.459 22.5104C295.071 22.5104 298.491 24.3637 300.722 27.499V23.7055H313.96ZM299.919 41.3961C299.919 37.1916 296.795 34.1278 292.481 34.1278C288.168 34.1278 285.268 37.0491 285.268 41.3961C285.268 45.7432 288.093 48.6651 292.408 48.6651C296.795 48.6651 299.919 45.7432 299.919 41.3961V41.3961Z" fill="#2F2C2C"/>
<path fill-rule="evenodd" clip-rule="evenodd" d="M449.322 22.1722V57.9633H436.53V53.0456C434.224 56.6091 430.655 58.7474 425.598 58.7474C415.26 58.7474 408.27 51.1934 408.27 39.8619C408.27 28.6025 415.632 20.9771 425.821 20.9771C430.432 20.9771 433.853 22.8303 436.084 25.9657V22.1722H449.322ZM435.281 39.8626C435.281 35.6581 432.158 32.5943 427.844 32.5943C423.531 32.5943 420.631 35.5156 420.631 39.8626C420.631 44.2097 423.456 47.1316 427.77 47.1316C432.158 47.1316 435.281 44.2097 435.281 39.8626V39.8626Z" fill="#2F2C2C"/>
<path d="M319.949 59.2746V23.4479H330.422V28.461C330.422 28.461 332.507 22.8967 343.099 22.8967C353.02 22.8967 356.695 31.1644 356.878 35.5739V59.2746H344.201V40.5345C344.201 38.3298 343.65 33.3692 338.138 33.3692C333.729 33.3692 332.259 37.4111 332.075 39.4321V59.2746H319.949Z" fill="#2F2C2C"/>
<path fill-rule="evenodd" clip-rule="evenodd" d="M161.587 35.8209C161.218 32.9215 158.783 31.1539 155.24 31.1539C151.624 31.1539 149.337 32.6392 148.377 35.8209H161.587ZM174.134 43.7442H148.156C149.042 47.1384 151.33 48.8355 155.093 48.8355C158.267 48.8355 160.333 47.7751 161.366 45.5822L173.79 45.7111C171.459 55.0354 162.843 58.9482 154.799 58.9482C143.36 58.9482 135.094 51.0278 135.094 40.1376C135.094 29.3882 143.581 21.4679 155.389 21.4679C166.68 21.4679 174.282 29.3178 174.282 40.279C174.282 42.2584 174.134 43.7442 174.134 43.7442Z" fill="#2F2C2C"/>
</g>
<defs>
<clipPath id="clip0_74_34">
<rect width="449.321" height="75" fill="white"/>
</clipPath>
</defs>
</svg>
