<svg width="570" height="194" viewBox="0 0 570 194" fill="none" xmlns="http://www.w3.org/2000/svg">
<rect width="570" height="194" fill="#2F2C2C"/>
<g clip-path="url(#clip0_74_246)">
<path fill-rule="evenodd" clip-rule="evenodd" d="M60 60V125.994H86.7084V117.946H68.0935V68.048H78.3327V60H60Z" fill="white"/>
<path fill-rule="evenodd" clip-rule="evenodd" d="M82.7305 68.048H86.3505V60H82.7305V68.048Z" fill="white"/>
<path fill-rule="evenodd" clip-rule="evenodd" d="M98.0859 60V68.048H116.701V117.946H106.462V125.994H124.794V60H98.0859Z" fill="white"/>
<path fill-rule="evenodd" clip-rule="evenodd" d="M98.4434 125.994H102.063V117.946H98.4434V125.994Z" fill="white"/>
<path fill-rule="evenodd" clip-rule="evenodd" d="M80.4551 76.7502V86.8969L94.5617 93.2645H94.5617L105.8 88.1915L80.4551 76.7502Z" fill="#D85556"/>
<path fill-rule="evenodd" clip-rule="evenodd" d="M105.8 88.1914V88.1914L94.5617 93.2644L80.4551 99.6322V109.779L105.8 98.3377V88.1914Z" fill="#F05E60"/>
<path fill-rule="evenodd" clip-rule="evenodd" d="M151.268 68.1106V118.268H162.842V103.386H168.354L176.622 118.268H191.504L180.48 98.9767C183.603 97.3231 189.96 92.1421 190.401 84.646C190.953 75.2759 183.236 68.1106 173.866 68.1106H151.268ZM162.809 79.4924V90.516H171.628C173.282 90.3323 176.589 88.8625 176.589 84.453C176.589 80.0436 172.547 79.3087 170.526 79.4924H162.809Z" fill="white"/>
<path fill-rule="evenodd" clip-rule="evenodd" d="M267.9 100.392C267.9 96.1873 264.776 93.1235 260.462 93.1235C256.149 93.1235 253.249 96.0448 253.249 100.392C253.249 104.739 256.074 107.661 260.389 107.661C264.776 107.661 267.9 104.739 267.9 100.392V100.392ZM280.839 65.6167V118.494H268.048V113.577C265.742 117.14 262.172 119.279 257.116 119.279C246.778 119.279 239.787 111.725 239.787 100.393C239.787 89.1337 247.15 81.5082 257.338 81.5082C261.949 81.5082 265.37 83.3615 267.601 86.4968V65.6167H280.839Z" fill="white"/>
<path fill-rule="evenodd" clip-rule="evenodd" d="M450.298 100.392C450.298 96.1873 447.175 93.1235 442.861 93.1235C438.548 93.1235 435.648 96.0448 435.648 100.392C435.648 104.739 438.473 107.661 442.787 107.661C447.175 107.661 450.298 104.739 450.298 100.392V100.392ZM463.242 65.6167V118.494H450.45V113.577C448.144 117.14 444.575 119.279 439.518 119.279C429.18 119.279 422.189 111.725 422.189 100.393C422.189 89.1337 429.552 81.5082 439.741 81.5082C444.352 81.5082 447.773 83.3615 450.004 86.4968V65.6167H463.242Z" fill="white"/>
<path fill-rule="evenodd" clip-rule="evenodd" d="M300.585 100.225C300.585 104.429 303.708 107.493 308.023 107.493C312.336 107.493 315.236 104.572 315.236 100.225C315.236 95.8778 312.41 92.956 308.096 92.956C303.708 92.956 300.585 95.8778 300.585 100.225V100.225ZM287.645 135L287.645 82.1223L300.436 82.1223L300.436 87.04C302.743 83.4765 306.312 81.3382 311.369 81.3382C321.706 81.3382 328.697 88.8921 328.697 100.224C328.697 111.483 321.334 119.109 311.146 119.109C306.535 119.109 303.114 117.255 300.883 114.12L300.883 135L287.645 135Z" fill="white"/>
<path fill-rule="evenodd" clip-rule="evenodd" d="M373.96 83.7054V119.496H361.169V114.579C358.863 118.142 355.293 120.281 350.237 120.281C339.899 120.281 332.908 112.727 332.908 101.395C332.908 90.1357 340.271 82.5103 350.459 82.5103C355.071 82.5103 358.491 84.3635 360.722 87.4989V83.7054H373.96ZM359.919 101.396C359.919 97.1915 356.795 94.1276 352.481 94.1276C348.168 94.1276 345.268 97.049 345.268 101.396C345.268 105.743 348.093 108.665 352.408 108.665C356.795 108.665 359.919 105.743 359.919 101.396V101.396Z" fill="white"/>
<path fill-rule="evenodd" clip-rule="evenodd" d="M509.322 82.1722V117.963H496.53V113.046C494.224 116.609 490.655 118.747 485.598 118.747C475.26 118.747 468.27 111.193 468.27 99.8619C468.27 88.6025 475.632 80.9771 485.821 80.9771C490.432 80.9771 493.853 82.8303 496.084 85.9657V82.1722H509.322ZM495.281 99.8626C495.281 95.6581 492.158 92.5943 487.844 92.5943C483.531 92.5943 480.631 95.5156 480.631 99.8626C480.631 104.21 483.456 107.132 487.77 107.132C492.158 107.132 495.281 104.21 495.281 99.8626V99.8626Z" fill="white"/>
<path d="M379.949 119.275V83.4479H390.422V88.461C390.422 88.461 392.507 82.8967 403.099 82.8967C413.02 82.8967 416.695 91.1644 416.878 95.5739V119.275H404.201V100.534C404.201 98.3298 403.65 93.3692 398.138 93.3692C393.729 93.3692 392.259 97.4111 392.075 99.4321V119.275H379.949Z" fill="white"/>
<path fill-rule="evenodd" clip-rule="evenodd" d="M221.587 95.8211C221.218 92.9216 218.783 91.154 215.24 91.154C211.624 91.154 209.337 92.6393 208.377 95.8211H221.587ZM234.134 103.744H208.156C209.042 107.138 211.33 108.836 215.093 108.836C218.267 108.836 220.333 107.775 221.366 105.582L233.79 105.711C231.459 115.036 222.843 118.948 214.799 118.948C203.36 118.948 195.094 111.028 195.094 100.138C195.094 89.3883 203.581 81.468 215.389 81.468C226.68 81.468 234.282 89.3179 234.282 100.279C234.282 102.259 234.134 103.744 234.134 103.744Z" fill="white"/>
</g>
<defs>
<clipPath id="clip0_74_246">
<rect width="449.321" height="75" fill="white" transform="translate(60 60)"/>
</clipPath>
</defs>
</svg>
