<svg width="247" height="138" viewBox="0 0 247 138" fill="none" xmlns="http://www.w3.org/2000/svg">
<g clip-path="url(#clip0_654_49739)">
<rect width="247" height="138" fill="#F2F4F7"/>
<path opacity="0.5" d="M249.146 43.735L169.822 14.2245L91.4997 44.7971L51.571 118.716L65.8953 198.618L131.32 252.285L214.248 252.158L277.163 197.095L291.83 114.306L249.146 43.735Z" fill="white"/>
<path opacity="0.5" d="M53.2924 -37.2107L3.98051 -55.5562L-44.7093 -36.5505L-69.5313 9.40175L-60.6264 59.0732L-19.955 92.4355L31.598 92.3568L70.7098 58.1263L79.8273 6.65994L53.2924 -37.2107Z" fill="white"/>
<g filter="url(#filter0_d_654_49739)">
<rect x="47" y="24" width="153" height="88" fill="white"/>
<rect x="49" y="26" width="149" height="84" stroke="black" stroke-width="4"/>
</g>
<path d="M95.4717 84.146H122.168V91.9325H95.4717V84.146Z" fill="#E2401B"/>
<path fill-rule="evenodd" clip-rule="evenodd" d="M76.1359 53L70.9998 57.924L84.6136 72.4663L70.9998 87.0085L76.1359 91.9326L94.3594 72.4663L76.1359 53Z" fill="#E2401B"/>
<rect x="50" y="28" width="148" height="11" fill="black"/>
<rect x="193" y="30" width="3" height="3" fill="white"/>
<rect x="187" y="30" width="3" height="3" fill="white"/>
<rect x="181" y="30" width="3" height="3" fill="white"/>
</g>
<defs>
<filter id="filter0_d_654_49739" x="47" y="24" width="155" height="90" filterUnits="userSpaceOnUse" color-interpolation-filters="sRGB">
<feFlood flood-opacity="0" result="BackgroundImageFix"/>
<feColorMatrix in="SourceAlpha" type="matrix" values="0 0 0 0 0 0 0 0 0 0 0 0 0 0 0 0 0 0 127 0" result="hardAlpha"/>
<feOffset dx="2" dy="2"/>
<feComposite in2="hardAlpha" operator="out"/>
<feColorMatrix type="matrix" values="0 0 0 0 0.85 0 0 0 0 0.85 0 0 0 0 0.85 0 0 0 1 0"/>
<feBlend mode="normal" in2="BackgroundImageFix" result="effect1_dropShadow_654_49739"/>
<feBlend mode="normal" in="SourceGraphic" in2="effect1_dropShadow_654_49739" result="shape"/>
</filter>
<clipPath id="clip0_654_49739">
<rect width="247" height="138" fill="white"/>
</clipPath>
</defs>
</svg>
