<svg width="247" height="138" viewBox="0 0 247 138" fill="none" xmlns="http://www.w3.org/2000/svg">
<g clip-path="url(#clip0_654_50038)">
<rect width="247" height="138" fill="#F2F4F7"/>
<path opacity="0.5" d="M249.146 43.735L169.822 14.2245L91.4997 44.7971L51.571 118.716L65.8953 198.618L131.32 252.285L214.248 252.158L277.163 197.095L291.83 114.306L249.146 43.735Z" fill="white"/>
<path opacity="0.5" d="M53.2924 -37.2107L3.98051 -55.5562L-44.7093 -36.5505L-69.5313 9.40175L-60.6264 59.0732L-19.955 92.4355L31.598 92.3568L70.7098 58.1263L79.8273 6.65994L53.2924 -37.2107Z" fill="white"/>
<path d="M98.5 98.5284V32.5H133.915L148.744 50.0383V98.5284H98.5Z" fill="white" stroke="#2F2C2C" stroke-width="5"/>
<path d="M132 75.5087L171.38 94.0343L161.26 102.647L172.429 115.889L166.519 121.401L155.132 107.872L144.274 117.105L132 75.5087Z" fill="#E2401B"/>
<path d="M132 52.5193V32L149.363 52.5193H132Z" fill="#2F2C2C"/>
</g>
<defs>
<clipPath id="clip0_654_50038">
<rect width="247" height="138" fill="white"/>
</clipPath>
</defs>
</svg>
